<svg id="visual" viewBox="0 0 900 2500" width="900" height="2500" xmlns="http://www.w3.org/2000/svg" xmlns:xlink="http://www.w3.org/1999/xlink" version="1.1"><path d="M185 0L170.8 37.8C156.7 75.7 128.3 151.3 133.3 227.2C138.3 303 176.7 379 188 454.8C199.3 530.7 183.7 606.3 183.8 682C184 757.7 200 833.3 198.2 909C196.3 984.7 176.7 1060.3 155 1136.2C133.3 1212 109.7 1288 108.7 1363.8C107.7 1439.7 129.3 1515.3 130.2 1591C131 1666.7 111 1742.3 97.7 1818C84.3 1893.7 77.7 1969.3 98.3 2045.2C119 2121 167 2197 187 2272.8C207 2348.7 199 2424.3 195 2462.2L191 2500L0 2500L0 2462.2C0 2424.3 0 2348.7 0 2272.8C0 2197 0 2121 0 2045.2C0 1969.3 0 1893.7 0 1818C0 1742.3 0 1666.7 0 1591C0 1515.3 0 1439.7 0 1363.8C0 1288 0 1212 0 1136.2C0 1060.3 0 984.7 0 909C0 833.3 0 757.7 0 682C0 606.3 0 530.7 0 454.8C0 379 0 303 0 227.2C0 151.3 0 75.7 0 37.8L0 0Z" fill="#ff0000" stroke-linecap="round" stroke-linejoin="miter"></path></svg>